<svg width="320" height="239" viewBox="0 0 240 179.25" version="1.2" xmlns:xlink="http://www.w3.org/1999/xlink" xmlns="http://www.w3.org/2000/svg"><defs><symbol overflow="visible" id="a"><path style="stroke:none" d="M2.078-2.875h3.64v-10.688l-3.39.844v-2.937l3.406-.813h3.141v13.594h3.64V0H2.079zm0 0"/></symbol></defs><path style="fill:#fff;stroke-width:1.43382" d="M4.065 0h231.87A4.056 4.056 0 0 1 240 4.064v170.907a4.056 4.056 0 0 1-4.065 4.064H4.065a4.056 4.056 0 0 1-4.064-4.064V4.064A4.056 4.056 0 0 1 4.065 0Z"/><path style="color:#000;fill:#a6a6a6;fill-opacity:.2;stroke-width:1.43382" d="M4.066 0v179.03h.2V0Zm4.06 0v179.03h.202V0Zm4.066 0v179.03h.202V0Zm4.067 0v179.03h.201V0Zm4.06 0v179.03h.201V0Zm4.066 0v179.03h.201V0Zm4.066 0v179.03h.202V0Zm4.06 0v179.03h.204V0Zm4.066 0v179.03h.202V0Zm4.066 0v179.03h.206V0Zm4.062 0v179.03h.2V0Zm4.067 0v179.03h.203V0Zm4.066 0v179.03h.203V0Zm4.06 0v179.03h.206V0Zm4.066 0v179.03h.206V0Zm4.066 0v179.03h.202V0Zm4.06 0v179.03H69.298V0Zm4.066 0v179.03h.202V0Zm4.066 0v179.03h.202V0Zm4.062 0v179.03h.2V0Zm4.067 0v179.03h.2V0Zm4.066 0v179.03h.2V0Zm4.066 0v179.03h.2V0Zm4.06 0v179.03h.202V0Zm4.066 0v179.03h.202V0Zm4.067 0v179.03h.201V0Zm4.062 0v179.03h.203V0Zm4.066 0v179.03h.2V0Zm4.066 0v179.03h.2V0Zm4.06 0v179.03h.202V0Zm4.066 0v179.03h.204V0Zm4.066 0v179.03h.202V0Zm4.06 0v179.03h.202V0Zm4.066 0v179.03h.202V0Zm4.067 0v179.03h.201V0Zm4.058 0v179.03h.203V0Zm4.068 0v179.03h.201V0Zm4.066 0v179.03h.202V0Zm4.06 0v179.03h.204V0Zm4.064 0v179.03h.206V0Zm4.07 0v179.03h.204V0Zm4.06 0v179.03h.2V0Zm4.067 0v179.03h.205V0Zm4.064 0v179.03h.204V0Zm4.062 0v179.03h.206V0Zm4.066 0v179.03h.206V0Zm4.066 0v179.03h.202V0Zm4.062 0v179.03h.2V0Zm4.066 0v179.03h.204V0Zm4.067 0v179.03h.2V0Zm4.06 0v179.03h.201V0Zm4.066 0v179.03h.201V0Zm4.066 0v179.03h.202V0Zm4.06 0v179.03h.202V0Zm4.066 0v179.03h.202V0Zm4.066 0v179.03h.202V0Zm4.062 0v179.03H231.876V0Zm4.067 0v179.03h.2V0Zm4.066 2.86v173.315c.118-.383.2-.781.2-1.204V4.064a4.04 4.04 0 0 0-.2-1.203zM.2 2.866c-.118.38-.2.778-.2 1.2V174.97c0 .421.082.818.2 1.2z"/><path style="color:#000;fill:#a6a6a6;fill-opacity:.2;stroke-width:1.43382" d="M4.066 0c-.428 0-.833.084-1.22.206h234.31a4.045 4.045 0 0 0-1.22-.206ZM0 4.06V4.266h240V4.06zm0 4.068v.204h240v-.204Zm0 4.066v.204h240v-.204Zm0 4.06v.204h240v-.204zm0 4.067v.205h240v-.205Zm0 4.066v.206h240v-.206Zm0 4.06v.206h240v-.206zm0 4.066v.206h240v-.206Zm0 4.066v.204h240v-.204zm0 4.062v.204h240v-.204Zm0 4.066v.204h240v-.204Zm0 4.067v.203h240v-.203Zm0 4.06v.203h240v-.203zM0 56.9v.204h240V56.9zm0 4.066v.204h240v-.204zm0 4.06v.204h240v-.204zm0 4.066v.204h240v-.204zm0 4.066v.204h240v-.204zm0 4.064v.202h240v-.202zm0 4.065v.2h240v-.2zm0 4.066v.204h240v-.204zm0 4.06v.201h240v-.201zm0 4.066v.202h240v-.202zm0 4.066v.202h240v-.202zm0 4.066v.204h240v-.204zm0 4.062v.2h240v-.2zm0 4.067v.2h240v-.2zm0 4.066v.2h240v-.2zm0 4.06v.201h240v-.201zm0 4.064v.206h240v-.206zm0 4.066v.206h240v-.206zm0 4.062v.204h240v-.204zm0 4.066v.204h240v-.204zm0 4.067v.203h240v-.203zm0 4.06v.205h240v-.205zm0 4.066v.206h240v-.206zm0 4.066v.206h240v-.206zm0 4.06v.206h240v-.206zm0 4.066v.206h240v-.206zm0 4.068v.204h240v-.203zm0 4.06v.202l.1-.001H240v-.2zm0 4.067v.203h240v-.203zm0 4.066v.202h240v-.202zm2.846 4.06c.38.12.779.201 1.2.203h231.91c.421 0 .819-.084 1.2-.203z"/><path style="color:#000;fill:#a6a6a6;fill-opacity:.2;stroke-width:1.43382" d="M8.126 0v179.03h.202V0Zm20.325 0v179.03h.202V0Zm20.32 0v179.03h.204V0ZM69.09 0v179.03H69.298V0Zm20.327 0v179.03h.2V0Zm20.32 0v179.03h.204V0Zm20.325 0v179.03h.202V0Zm20.319 0v179.03h.201V0Zm20.32 0v179.03h.2V0Zm20.325 0v179.03h.202V0Zm20.32 0v179.03h.202V0Zm20.321 0v179.03H231.876V0Z"/><path style="color:#000;fill:#000;stroke-width:1.43382" d="M7.941 0v4.163h.57V0Zm223.546 0v4.163h.571V0ZM0 7.943v.57h4.165v-.57Zm235.834 0v.57H240v-.57ZM0 170.52v.571h4.165v-.571zm235.832 0v.572H240v-.571zM7.94 174.87v4.164h.571v-4.164zm223.546 0v4.164h.573v-4.164h-.571z"/><path style="color:#000;fill:#a6a6a6;fill-opacity:.2;stroke-width:1.43382" d="M0 8.128v.204h240v-.204Zm0 20.319v.206h240v-.206zm0 20.327v.203h240v-.203Zm0 20.318v.204h240v-.204zm0 20.32v.202h240v-.201zm0 20.328v.2h240v-.2zm0 20.318v.204h240v-.204zm0 20.325v.206h240v-.206zm0 20.32v.204h240v-.203z"/><path style="fill:#b3e6fa;fill-opacity:.3;fill-rule:nonzero;stroke:#66ccf5;stroke-width:.28346;stroke-linecap:butt;stroke-linejoin:miter;stroke-miterlimit:10;stroke-opacity:.3" d="M.002 0v45.355h68.031V0Zm0 0" transform="matrix(1.43382 0 0 -1.43382 28.552 122.026)"/><use xlink:href="#a" x="47.032" y="70.624" width="100%" height="100%" style="fill:#66ccf5;fill-opacity:.3" transform="matrix(1.43382 0 0 1.43382 .102 .102)"/><path style="fill:none;stroke:#00e300;stroke-width:14.1734;stroke-linecap:butt;stroke-linejoin:miter;stroke-miterlimit:10;stroke-opacity:.2" d="M94.96 85.04V39.685" transform="matrix(1.43382 0 0 -1.43382 .102 178.927)"/><path style="fill:none;stroke:#00e300;stroke-width:.56693;stroke-linecap:butt;stroke-linejoin:miter;stroke-miterlimit:10;stroke-opacity:.8" d="M19.844 85.04V39.685h127.558V85.04zm0 0" transform="matrix(1.43382 0 0 -1.43382 .102 178.927)"/><path style="fill:none;stroke:#00e300;stroke-width:.56693;stroke-linecap:butt;stroke-linejoin:miter;stroke-miterlimit:10;stroke-dasharray:2.83466,2.83466;stroke-opacity:.8" d="M19.844 85.04v19.844h127.558V85.04M19.844 39.685V19.84h127.558v19.844" transform="matrix(1.43382 0 0 -1.43382 .102 178.927)"/></svg>