<svg width="320" height="239" viewBox="0 0 240 179.25" version="1.2" xmlns:xlink="http://www.w3.org/1999/xlink" xmlns="http://www.w3.org/2000/svg"><defs><symbol overflow="visible" id="a"><path style="stroke:none" d="M.14-4.563h3.485v.532H2.187V0h-.609v-4.031H.141zm0 0"/></symbol><symbol overflow="visible" id="b"><path style="stroke:none" d="M3.203-2.125V0h-.562v-2.125c0-.3-.059-.523-.172-.672-.106-.144-.274-.219-.5-.219-.262 0-.465.094-.61.282-.136.187-.203.453-.203.796V0H.594v-4.75h.562v1.844a1.03 1.03 0 0 1 .407-.438c.164-.101.367-.156.609-.156.344 0 .598.117.765.344.176.23.266.574.266 1.031zm0 0"/></symbol><symbol overflow="visible" id="c"><path style="stroke:none" d="M.969-3.406h1.437v2.969h1.11V0H.719v-.438h1.125v-2.53H.969zm.875-1.328h.562v.703h-.562zm0 0"/></symbol><symbol overflow="visible" id="d"><path style="stroke:none" d="M2.969-3.297v.547a1.853 1.853 0 0 0-.485-.203 1.731 1.731 0 0 0-.5-.078c-.25 0-.437.043-.562.125a.427.427 0 0 0-.188.375c0 .156.047.273.141.344.094.074.32.148.688.218l.234.047c.281.055.488.156.625.313.144.156.219.367.219.625 0 .336-.121.601-.36.796-.242.188-.574.282-1 .282-.168 0-.343-.024-.531-.063a3.437 3.437 0 0 1-.594-.156v-.578c.207.105.406.187.594.25.188.055.367.078.547.078.25 0 .441-.05.578-.156a.505.505 0 0 0 .203-.422c0-.258-.25-.442-.75-.547h-.031l-.203-.047c-.324-.062-.563-.164-.719-.312-.148-.157-.219-.36-.219-.61 0-.332.11-.586.328-.765.227-.176.547-.266.954-.266.187 0 .363.016.53.047.165.031.333.086.5.156zm0 0"/></symbol><symbol overflow="visible" id="e"><path style="stroke:none" d="M1.875-4.39v.968h1.281v.438H1.875v1.859c0 .25.047.43.14.531.094.094.258.14.5.14h.641V0H2.47c-.43 0-.73-.082-.906-.25-.168-.164-.25-.457-.25-.875v-1.86H.405v-.437h.906v-.969zm0 0"/></symbol><symbol overflow="visible" id="f"><path style="stroke:none" d="M3.422-1.984v.265H.984v.016c-.011.469.079.808.266 1.016.195.199.473.296.828.296.176 0 .363-.023.563-.078.195-.062.406-.148.625-.265v.562a3.72 3.72 0 0 1-.625.188c-.2.05-.391.078-.579.078-.53 0-.949-.157-1.25-.469C.52-.695.376-1.141.376-1.703c0-.55.145-.988.438-1.313.289-.32.68-.484 1.171-.484.438 0 .782.152 1.032.453.25.293.382.649.406 1.063zm-.563-.172a1.14 1.14 0 0 0-.265-.61c-.149-.175-.356-.265-.625-.265a.879.879 0 0 0-.672.281.943.943 0 0 0-.297.594Zm0 0"/></symbol><symbol overflow="visible" id="g"><path style="stroke:none" d="m3.406-3.422-1.219 1.64L3.532 0h-.656l-1-1.375L.875 0h-.64l1.343-1.781-1.234-1.64h.625l.906 1.233.906-1.234Zm0 0"/></symbol><symbol overflow="visible" id="h"><path style="stroke:none" d="M3.25-4.75v.469h-.64c-.212 0-.356.043-.438.125-.074.086-.11.23-.11.437v.297H3.25v.438H2.062V0H1.5v-2.984H.594v-.438H1.5v-.234c0-.375.082-.649.25-.828.176-.176.445-.266.813-.266Zm0 0"/></symbol><symbol overflow="visible" id="i"><path style="stroke:none" d="M2.188-1.234c0 .25.046.445.14.578.094.125.235.187.422.187h.656V0h-.719c-.335 0-.593-.102-.78-.313-.188-.218-.282-.523-.282-.921v-3.094h-.89v-.438h1.453Zm0 0"/></symbol><symbol overflow="visible" id="j"><path style="stroke:none" d="M3.531-2.719a1.364 1.364 0 0 0-.375-.203 1.361 1.361 0 0 0-.406-.062c-.355 0-.625.109-.813.328-.18.219-.265.539-.265.953V0h-.563v-3.422h.563v.672c.094-.238.234-.422.422-.547.195-.133.43-.203.703-.203.133 0 .258.023.375.063.125.03.242.085.36.156zm0 0"/></symbol><symbol overflow="visible" id="k"><path style="stroke:none" d="M1.14-.438v1.735H.579v-4.719h.563v.438a.961.961 0 0 1 .375-.375c.156-.094.336-.141.546-.141.407 0 .723.164.954.484.238.313.359.758.359 1.329 0 .554-.121.992-.36 1.312-.23.313-.546.469-.953.469-.21 0-.39-.043-.546-.125a.996.996 0 0 1-.375-.406zm1.657-1.265c0-.438-.074-.766-.219-.984a.67.67 0 0 0-.61-.344.7.7 0 0 0-.624.344c-.137.218-.203.546-.203.984 0 .43.066.758.203.984a.702.702 0 0 0 .625.328c.27 0 .472-.109.61-.328.144-.219.218-.547.218-.984zm0 0"/></symbol><symbol overflow="visible" id="l"><path style="stroke:none" d="M2.14-1.719h-.187c-.324 0-.57.059-.734.172-.168.117-.25.29-.25.516 0 .21.062.37.187.484.125.117.297.172.516.172.312 0 .555-.11.734-.328.176-.219.266-.516.266-.89v-.126zm1.094-.234V0h-.562v-.5c-.125.2-.281.352-.469.453-.18.094-.398.14-.656.14-.344 0-.621-.097-.828-.296C.508-.398.406-.664.406-1c0-.375.125-.66.375-.86.258-.195.633-.296 1.125-.296h.766v-.094c0-.27-.074-.469-.219-.594-.137-.125-.351-.187-.64-.187-.2 0-.399.031-.594.094a2.867 2.867 0 0 0-.563.234v-.563a6.11 6.11 0 0 1 .594-.171c.188-.04.375-.063.563-.063.28 0 .519.043.718.125.196.086.36.21.485.375a.92.92 0 0 1 .171.375c.032.148.047.371.047.672zm0 0"/></symbol><symbol overflow="visible" id="m"><path style="stroke:none" d="M3.234-.172a1.732 1.732 0 0 1-.468.188c-.157.05-.32.078-.485.078-.531 0-.949-.157-1.25-.469-.293-.32-.437-.766-.437-1.328 0-.563.144-1 .437-1.313.301-.32.719-.484 1.25-.484.164 0 .328.023.485.063.156.042.312.109.468.203v.578a1.665 1.665 0 0 0-.453-.281 1.268 1.268 0 0 0-.5-.094c-.355 0-.625.117-.812.344-.188.23-.282.558-.282.984 0 .418.094.742.282.969.195.23.468.343.812.343.196 0 .375-.023.531-.078.157-.062.297-.156.422-.281Zm0 0"/></symbol><symbol overflow="visible" id="n"><path style="stroke:none" d="M.313-2.203h3.234v.515H.312Zm0 0"/></symbol><symbol overflow="visible" id="o"><path style="stroke:none" d="M1.875-3.031a.716.716 0 0 0-.64.344c-.15.218-.22.546-.22.984 0 .43.07.758.22.984.144.219.359.328.64.328.29 0 .508-.109.656-.328.145-.226.219-.554.219-.984 0-.438-.074-.766-.219-.984a.738.738 0 0 0-.656-.344Zm0-.469c.477 0 .844.156 1.094.469.25.304.375.746.375 1.328 0 .586-.125 1.031-.375 1.344-.25.304-.617.453-1.094.453-.469 0-.828-.149-1.078-.453-.25-.313-.375-.758-.375-1.344 0-.582.125-1.024.375-1.328.25-.313.61-.469 1.078-.469Zm0 0"/></symbol><symbol overflow="visible" id="p"><path style="stroke:none" d="M2.625-2.984V-4.75h.563V0h-.563v-.438a.996.996 0 0 1-.375.407c-.156.082-.34.125-.547.125-.406 0-.73-.16-.969-.485C.492-.71.375-1.156.375-1.719c0-.55.117-.984.36-1.297a1.15 1.15 0 0 1 .968-.484 1.046 1.046 0 0 1 .922.516zM.969-1.704c0 .438.066.766.203.985.133.219.336.328.61.328.269 0 .476-.109.624-.328.145-.226.219-.554.219-.984 0-.438-.074-.766-.219-.984a.708.708 0 0 0-.625-.344.662.662 0 0 0-.61.344c-.136.218-.202.546-.202.984zm0 0"/></symbol><symbol overflow="visible" id="q"><path style="stroke:none" d="M1.188-1.234h1.078V0H1.187Zm0 0"/></symbol><symbol overflow="visible" id="r"><path style="stroke:none" d="M5.984-3.578h8.672V0H1.578v-3.469l2.219-2.344C6.41-8.601 8-10.316 8.562-10.953c.688-.79 1.18-1.492 1.485-2.11.3-.613.453-1.218.453-1.812 0-.914-.277-1.625-.828-2.125-.555-.5-1.34-.75-2.36-.75-.73 0-1.546.148-2.453.438-.906.28-1.851.699-2.828 1.25v-3.797a20.224 20.224 0 0 1 2.875-.813 13.977 13.977 0 0 1 2.719-.281c2.176 0 3.883.512 5.125 1.531 1.25 1.012 1.875 2.39 1.875 4.14 0 .813-.137 1.575-.406 2.282-.274.71-.735 1.496-1.39 2.36-.493.624-1.829 2.03-4.017 4.218a517.956 517.956 0 0 0-2.828 2.844zm0 0"/></symbol></defs><path style="fill:#fff;stroke-width:1.43381" d="M4.065 0h231.87A4.056 4.056 0 0 1 240 4.064v170.907a4.056 4.056 0 0 1-4.065 4.064H4.065a4.056 4.056 0 0 1-4.064-4.064V4.064A4.056 4.056 0 0 1 4.065 0Z"/><path style="color:#000;fill:#a6a6a6;fill-opacity:.2;stroke-width:1.43381" d="M4.066 0v179.029h.2V0Zm4.06 0v179.029h.202V0Zm4.066 0v179.029h.202V0Zm4.067 0v179.029h.201V0Zm4.06 0v179.029h.201V0Zm4.066 0v179.029h.201V0Zm4.066 0v179.029h.202V0Zm4.06 0v179.029h.204V0Zm4.066 0v179.029h.202V0Zm4.066 0v179.029h.206V0Zm4.062 0v179.029h.2V0Zm4.066 0v179.029h.204V0Zm4.067 0v179.029h.203V0Zm4.06 0v179.029h.205V0Zm4.066 0v179.029h.206V0Zm4.066 0v179.029h.202V0Zm4.06 0v179.029H69.298V0Zm4.066 0v179.029h.202V0Zm4.066 0v179.029h.202V0Zm4.062 0v179.029h.2V0Zm4.067 0v179.029h.2V0Zm4.066 0v179.029h.2V0Zm4.066 0v179.029h.2V0Zm4.06 0v179.029h.202V0Zm4.066 0v179.029h.202V0Zm4.066 0v179.029h.202V0Zm4.062 0v179.029h.204V0Zm4.067 0v179.029h.2V0Zm4.066 0v179.029h.2V0Zm4.06 0v179.029h.201V0Zm4.066 0v179.029h.204V0Zm4.066 0v179.029h.202V0Zm4.06 0v179.029h.202V0Zm4.066 0v179.029h.202V0Zm4.067 0v179.029h.201V0Zm4.057 0v179.029h.204V0Zm4.069 0v179.029h.201V0Zm4.066 0v179.029h.201V0Zm4.06 0v179.029h.203V0Zm4.064 0v179.029h.206V0Zm4.07 0v179.029h.204V0Zm4.06 0v179.029h.2V0Zm4.066 0v179.029h.206V0Zm4.065 0v179.029h.203V0Zm4.062 0v179.029h.205V0Zm4.066 0v179.029h.206V0Zm4.066 0v179.029h.202V0Zm4.062 0v179.029h.2V0Zm4.066 0v179.029h.204V0Zm4.066 0v179.029h.2V0Zm4.06 0v179.029h.202V0Zm4.067 0v179.029h.201V0Zm4.066 0v179.029h.201V0Zm4.06 0v179.029h.201V0Zm4.066 0v179.029h.202V0Zm4.066 0v179.029h.202V0Zm4.062 0v179.029H231.876V0Zm4.066 0v179.029h.2V0Zm4.067 2.86v173.315c.118-.383.2-.781.2-1.204V4.064a4.04 4.04 0 0 0-.2-1.203zM.2 2.866c-.118.38-.2.778-.2 1.2V174.97c0 .421.082.818.2 1.2z"/><path style="color:#000;fill:#a6a6a6;fill-opacity:.2;stroke-width:1.43381" d="M4.066 0c-.428 0-.833.084-1.22.206h234.31A4.045 4.045 0 0 0 235.934 0ZM0 4.06V4.266h240V4.06zm0 4.068v.204h240v-.204Zm0 4.066v.204h240v-.204zm0 4.06v.204h240v-.204zm0 4.067v.205h240v-.205zm0 4.066v.206h240v-.206zm0 4.06v.206h240v-.206Zm0 4.066v.206h240v-.206zm0 4.066v.204h240v-.204zm0 4.062v.204h240v-.204zm0 4.066v.204h240v-.204zm0 4.067v.203h240v-.203zm0 4.06v.203h240v-.204zM0 56.9v.203h240V56.9zm0 4.066v.204h240v-.204zm0 4.06v.204h240v-.204zm0 4.066v.204h240v-.204zm0 4.066v.204h240v-.204zm0 4.064v.202h240v-.202zm0 4.064v.2h240v-.2zm0 4.067v.203h240v-.203zm0 4.06v.201h240v-.201zm0 4.066v.201h240v-.201zm0 4.066v.202h240v-.202zm0 4.066v.204h240v-.204zm0 4.062v.2h240v-.2zm0 4.066v.2h240v-.2zm0 4.067v.2h240v-.2zm0 4.06v.201h240v-.201zm0 4.064v.206h240v-.206zm0 4.066v.206h240v-.206zm0 4.062v.204h240v-.204zm0 4.066v.204h240v-.204zm0 4.066v.204h240v-.204zm0 4.06v.206h240v-.206zm0 4.067v.205h240v-.205zm0 4.066v.206h240v-.206zm0 4.06v.205h240v-.205zm0 4.066v.206h240v-.206zm0 4.068v.204l.1-.001H240v-.202zm0 4.06v.202l.1-.001H240v-.2zm0 4.066v.204h240v-.204zm0 4.067v.202h240v-.202zm2.846 4.06c.38.12.779.201 1.2.203h231.91c.42 0 .819-.084 1.2-.204z"/><path style="color:#000;fill:#a6a6a6;fill-opacity:.2;stroke-width:1.43381" d="M8.126 0v179.029h.202V0Zm20.325 0v179.029h.202V0Zm20.32 0v179.029h.204V0ZM69.09 0v179.029H69.298V0Zm20.327 0v179.029h.2V0Zm20.32 0v179.029h.204V0Zm20.325 0v179.029h.202V0Zm20.319 0v179.029h.201V0Zm20.32 0v179.029h.2V0Zm20.325 0v179.029h.202V0Zm20.32 0v179.029h.202V0Zm20.321 0v179.029H231.876V0Z"/><path style="color:#000;fill:#000;stroke-width:1.43381" d="M7.941 0v4.163h.57V0Zm223.545 0v4.163h.572V0ZM0 7.943v.57h4.165v-.57Zm235.834 0v.57H240v-.57ZM0 170.518v.572h4.165v-.572zm235.832 0v.573h4.167v-.572zM7.939 174.87v4.165h.571v-4.165zm223.545 0v4.165h.574v-4.165h-.572z"/><path style="color:#000;fill:#a6a6a6;fill-opacity:.2;stroke-width:1.43381" d="M0 8.128v.204h240v-.204Zm0 20.319v.206h240v-.206Zm0 20.327v.203h240v-.203zm0 20.318v.204h240v-.204zm0 20.32v.202h240v-.201zm0 20.327v.2h240v-.2zm0 20.319v.204h240v-.204zm0 20.325v.206h240v-.206zm0 20.32v.204h240v-.204z"/><use xlink:href="#a" x="19.654" y="38.799" width="100%" height="100%" style="fill:#000;fill-opacity:1" transform="matrix(1.43381 0 0 1.43381 .102 .102)"/><use xlink:href="#b" x="23.431" y="38.799" width="100%" height="100%" style="fill:#000;fill-opacity:1" transform="matrix(1.43381 0 0 1.43381 .102 .102)"/><use xlink:href="#c" x="27.208" y="38.799" width="100%" height="100%" style="fill:#000;fill-opacity:1" transform="matrix(1.43381 0 0 1.43381 .102 .102)"/><use xlink:href="#d" x="30.984" y="38.799" width="100%" height="100%" style="fill:#000;fill-opacity:1" transform="matrix(1.43381 0 0 1.43381 .102 .102)"/><use xlink:href="#e" x="38.644" y="38.799" width="100%" height="100%" style="fill:#000;fill-opacity:1" transform="matrix(1.43381 0 0 1.43381 .102 .102)"/><use xlink:href="#f" x="42.421" y="38.799" width="100%" height="100%" style="fill:#000;fill-opacity:1" transform="matrix(1.43381 0 0 1.43381 .102 .102)"/><use xlink:href="#g" x="46.198" y="38.799" width="100%" height="100%" style="fill:#000;fill-opacity:1" transform="matrix(1.43381 0 0 1.43381 .102 .102)"/><use xlink:href="#e" x="49.981" y="38.799" width="100%" height="100%" style="fill:#000;fill-opacity:1" transform="matrix(1.43381 0 0 1.43381 .102 .102)"/><use xlink:href="#h" x="57.635" y="38.799" width="100%" height="100%" style="fill:#000;fill-opacity:1" transform="matrix(1.43381 0 0 1.43381 .102 .102)"/><use xlink:href="#c" x="61.412" y="38.799" width="100%" height="100%" style="fill:#000;fill-opacity:1" transform="matrix(1.43381 0 0 1.43381 .102 .102)"/><use xlink:href="#i" x="65.195" y="38.799" width="100%" height="100%" style="fill:#000;fill-opacity:1" transform="matrix(1.43381 0 0 1.43381 .102 .102)"/><use xlink:href="#i" x="68.971" y="38.799" width="100%" height="100%" style="fill:#000;fill-opacity:1" transform="matrix(1.43381 0 0 1.43381 .102 .102)"/><use xlink:href="#d" x="72.748" y="38.799" width="100%" height="100%" style="fill:#000;fill-opacity:1" transform="matrix(1.43381 0 0 1.43381 .102 .102)"/><use xlink:href="#e" x="19.842" y="47.366" width="100%" height="100%" style="fill:#000;fill-opacity:1" transform="matrix(1.43381 0 0 1.43381 .102 .102)"/><use xlink:href="#b" x="23.619" y="47.366" width="100%" height="100%" style="fill:#000;fill-opacity:1" transform="matrix(1.43381 0 0 1.43381 .102 .102)"/><use xlink:href="#f" x="27.396" y="47.366" width="100%" height="100%" style="fill:#000;fill-opacity:1" transform="matrix(1.43381 0 0 1.43381 .102 .102)"/><use xlink:href="#h" x="34.018" y="47.366" width="100%" height="100%" style="fill:#000;fill-opacity:1" transform="matrix(1.43381 0 0 1.43381 .102 .102)"/><use xlink:href="#c" x="37.794" y="47.366" width="100%" height="100%" style="fill:#000;fill-opacity:1" transform="matrix(1.43381 0 0 1.43381 .102 .102)"/><use xlink:href="#j" x="41.571" y="47.366" width="100%" height="100%" style="fill:#000;fill-opacity:1" transform="matrix(1.43381 0 0 1.43381 .102 .102)"/><use xlink:href="#d" x="45.348" y="47.366" width="100%" height="100%" style="fill:#000;fill-opacity:1" transform="matrix(1.43381 0 0 1.43381 .102 .102)"/><use xlink:href="#e" x="49.131" y="47.366" width="100%" height="100%" style="fill:#000;fill-opacity:1" transform="matrix(1.43381 0 0 1.43381 .102 .102)"/><use xlink:href="#k" x="55.747" y="47.366" width="100%" height="100%" style="fill:#000;fill-opacity:1" transform="matrix(1.43381 0 0 1.43381 .102 .102)"/><use xlink:href="#i" x="59.524" y="47.366" width="100%" height="100%" style="fill:#000;fill-opacity:1" transform="matrix(1.43381 0 0 1.43381 .102 .102)"/><use xlink:href="#l" x="63.3" y="47.366" width="100%" height="100%" style="fill:#000;fill-opacity:1" transform="matrix(1.43381 0 0 1.43381 .102 .102)"/><use xlink:href="#m" x="67.083" y="47.366" width="100%" height="100%" style="fill:#000;fill-opacity:1" transform="matrix(1.43381 0 0 1.43381 .102 .102)"/><use xlink:href="#f" x="70.86" y="47.366" width="100%" height="100%" style="fill:#000;fill-opacity:1" transform="matrix(1.43381 0 0 1.43381 .102 .102)"/><use xlink:href="#n" x="74.637" y="47.366" width="100%" height="100%" style="fill:#000;fill-opacity:1" transform="matrix(1.43381 0 0 1.43381 .102 .102)"/><use xlink:href="#b" x="19.842" y="55.934" width="100%" height="100%" style="fill:#000;fill-opacity:1" transform="matrix(1.43381 0 0 1.43381 .102 .102)"/><use xlink:href="#o" x="23.619" y="55.934" width="100%" height="100%" style="fill:#000;fill-opacity:1" transform="matrix(1.43381 0 0 1.43381 .102 .102)"/><use xlink:href="#i" x="27.396" y="55.934" width="100%" height="100%" style="fill:#000;fill-opacity:1" transform="matrix(1.43381 0 0 1.43381 .102 .102)"/><use xlink:href="#p" x="31.172" y="55.934" width="100%" height="100%" style="fill:#000;fill-opacity:1" transform="matrix(1.43381 0 0 1.43381 .102 .102)"/><use xlink:href="#f" x="34.956" y="55.934" width="100%" height="100%" style="fill:#000;fill-opacity:1" transform="matrix(1.43381 0 0 1.43381 .102 .102)"/><use xlink:href="#j" x="38.732" y="55.934" width="100%" height="100%" style="fill:#000;fill-opacity:1" transform="matrix(1.43381 0 0 1.43381 .102 .102)"/><use xlink:href="#q" x="42.509" y="55.934" width="100%" height="100%" style="fill:#000;fill-opacity:1" transform="matrix(1.43381 0 0 1.43381 .102 .102)"/><path style="fill:#b3e6fa;fill-opacity:.3;fill-rule:nonzero;stroke:#66ccf5;stroke-width:.28346;stroke-linecap:butt;stroke-linejoin:miter;stroke-miterlimit:10;stroke-opacity:.3" d="M.002.002v56.691h56.691V.002Zm0 0" transform="matrix(1.43381 0 0 -1.43381 130.162 130.156)"/><use xlink:href="#r" x="110.523" y="72.878" width="100%" height="100%" style="fill:#66ccf5;fill-opacity:.3" transform="matrix(1.43381 0 0 1.43381 .102 .102)"/></svg>